<?xml version="1.0" encoding="utf-8"?>
<!-- Generator: Adobe Illustrator 27.7.0, SVG Export Plug-In . SVG Version: 6.00 Build 0)  -->
<svg version="1.1" xmlns="http://www.w3.org/2000/svg" xmlns:xlink="http://www.w3.org/1999/xlink" x="0px" y="0px"
	 viewBox="0 0 360 360" style="enable-background:new 0 0 360 360;" xml:space="preserve">
<style type="text/css">
	.st0{fill:#2E3192;stroke:#2E3192;stroke-width:0.25;stroke-miterlimit:10;}
	.st1{fill:#2E3192;}
	.st2{fill:#231F20;}
</style>
<g id="Layer_3">
</g>
<g id="Layer_1">
	<rect x="172.03" y="9.17" class="st0" width="8.48" height="313.1"/>
	<g>
		<path class="st1" d="M172.16,322.27c0.16,8.61,0,23.45-0.01,35.93l0,0c2.42-11.59,6.79-28.34,8.35-35.93"/>
		<g>
			<path class="st1" d="M171.91,322.27c0.22,11.97,0,23.96-0.01,35.93c0,0.27,0.43,0.35,0.49,0.07c2.52-12.04,5.87-23.89,8.35-35.93
				c0.06-0.31-0.42-0.45-0.48-0.13c-2.49,12.04-5.83,23.9-8.35,35.93c0.16,0.02,0.33,0.04,0.49,0.07
				c0.01-11.98,0.23-23.96,0.01-35.93C172.4,321.95,171.9,321.95,171.91,322.27L171.91,322.27z"/>
		</g>
	</g>
</g>
<g id="Layer_2">
	<g>
		<g>
			<path class="st2" d="M163.27,21.9c5.66,4.57,11.26,9.22,16.53,14.25c4.99,4.77,9.72,9.79,14.54,14.72
				c6.13,6.27,12.32,12.6,16.83,20.18c2.09,3.52,3.8,7.26,4.79,11.25c0.47,1.9,0.67,3.15,0.78,4.87c0.12,1.76,0.11,3.53-0.05,5.29
				c-0.14,1.56-0.49,3.43-1.04,5.32c-0.59,2-1.05,3.14-2.04,4.91c-1.01,1.8-1.73,2.8-3.09,4.21c-1.45,1.49-2.46,2.25-4.33,3.27
				c-3.52,1.94-0.37,7.34,3.15,5.4c6.83-3.76,11.24-10.74,12.87-18.25c1.81-8.31,0.49-16.57-2.96-24.26
				c-3.78-8.43-9.94-15.62-16.27-22.25c-5.47-5.74-11-11.45-16.65-17.01c-5.9-5.81-12.22-11.12-18.65-16.32
				c-1.31-1.06-3.14-1.28-4.42,0C162.18,18.58,161.95,20.83,163.27,21.9L163.27,21.9z"/>
		</g>
	</g>
	<g>
		<path class="st2" d="M204.9,110.92c-4.33,4.43-11.4,11.16-17.81,17.45l0,0c7.31-4.45,18.36-10.37,23.13-13.3"/>
		<g>
			<path class="st2" d="M204.73,110.74c-5.81,5.94-11.88,11.63-17.81,17.45c-0.2,0.2,0.06,0.54,0.3,0.39
				c7.6-4.62,15.55-8.66,23.13-13.3c0.27-0.17,0.02-0.6-0.25-0.43c-7.59,4.64-15.53,8.68-23.13,13.3c0.1,0.13,0.2,0.26,0.3,0.39
				c5.94-5.81,12-11.51,17.81-17.45C205.3,110.87,204.95,110.51,204.73,110.74L204.73,110.74z"/>
		</g>
	</g>
	<g>
		<path class="st2" d="M163.38,22.2c-4.35-4.41-12.08-11.75-18.51-18.01l0,0c7.27,4.47,18.25,10.46,23,13.4"/>
		<g>
			<path class="st2" d="M163.55,22.02c-6.05-6.12-12.34-12.01-18.51-18.01c-0.1,0.13-0.2,0.26-0.3,0.39
				c7.56,4.64,15.45,8.73,23,13.4c0.27,0.17,0.53-0.26,0.25-0.43c-7.55-4.67-15.44-8.76-23-13.4c-0.24-0.15-0.51,0.19-0.3,0.39
				c6.17,6,12.46,11.89,18.51,18.01C163.43,22.6,163.78,22.25,163.55,22.02L163.55,22.02z"/>
		</g>
	</g>
	<g>
		<g>
			<path class="st2" d="M141.83,154.79c-4.77,3.22-9.49,6.56-13.83,10.35c-3.57,3.12-6.8,6.58-9.91,10.14
				c-4.24,4.86-8.67,9.71-12.3,15.05c-3.68,5.41-6.54,11.41-8.54,17.65c-3.96,12.36-4.45,26.22-0.23,38.58
				c3.87,11.33,11.3,21.25,20.6,28.73c9.96,8.02,21.7,13.38,34.24,15.83c15.09,2.96,30.61,2.1,45.61-0.97
				c7.05-1.44,14.02-3.36,20.83-5.72c6.45-2.24,12.82-4.92,18.67-8.46c5.73-3.47,11.07-7.78,15.24-13.06
				c4-5.06,6.98-10.82,8.82-17.01c3.67-12.4,2.57-26.07-3.49-37.53c-5.74-10.85-15.57-19.29-26.98-23.7
				c-2.72-1.05-5.54-1.83-8.41-2.35c-1.66-0.3-3.37,0.45-3.84,2.18c-0.42,1.51,0.51,3.54,2.18,3.84
				c10.94,1.97,20.85,8.09,27.53,16.75c7.1,9.2,10.01,20.55,8.52,32.08c-1.49,11.57-7.64,22.2-17,29.51
				c-10.07,7.87-22.7,12.15-34.91,15.38c-25.5,6.75-54.25,7.42-76.99-7.19c-9.17-5.9-17-13.99-21.97-23.8
				c-5.15-10.15-6.49-22.33-4.35-33.65c1.12-5.92,3.05-11.68,5.79-17.03c2.89-5.63,6.65-10.42,10.72-15.21
				c3.26-3.84,6.5-7.7,10.03-11.3c3.13-3.19,6.72-6.24,9.93-8.62c2.35-1.75,4.77-3.42,7.2-5.06c1.4-0.94,2.01-2.75,1.12-4.28
				C145.29,154.52,143.24,153.84,141.83,154.79L141.83,154.79z"/>
		</g>
	</g>
	<g>
		<path class="st2" d="M146.78,159.16c4.7-4.03,12.34-10.11,19.28-15.81l0,0c-7.67,3.78-19.21,8.71-24.22,11.21"/>
		<g>
			<path class="st2" d="M146.95,159.34c6.32-5.4,12.86-10.54,19.28-15.81c0.23-0.19-0.06-0.51-0.3-0.39
				c-7.98,3.93-16.25,7.26-24.22,11.21c-0.29,0.14-0.04,0.57,0.25,0.43c7.97-3.95,16.24-7.28,24.22-11.21
				c-0.1-0.13-0.2-0.26-0.3-0.39c-6.43,5.27-12.97,10.4-19.28,15.81C146.36,159.2,146.71,159.55,146.95,159.34L146.95,159.34z"/>
		</g>
	</g>
	<g>
		<path class="st2" d="M219.47,187.85c-5.89-1.89-15.3-4.54-23.91-7.09l0,0c8.54,0.51,21.08,0.58,26.67,0.94"/>
		<g>
			<path class="st2" d="M219.54,187.61c-7.92-2.53-15.94-4.73-23.91-7.09c-0.02,0.16-0.04,0.33-0.07,0.49
				c8.88,0.53,17.79,0.39,26.67,0.94c0.32,0.02,0.32-0.48,0-0.5c-8.88-0.55-17.79-0.41-26.67-0.94c-0.29-0.02-0.33,0.41-0.07,0.49
				c7.97,2.36,15.99,4.56,23.91,7.09C219.71,188.19,219.84,187.7,219.54,187.61L219.54,187.61z"/>
		</g>
	</g>
</g>
</svg>
