<?xml version="1.0" encoding="utf-8"?>
<!-- Generator: Adobe Illustrator 27.7.0, SVG Export Plug-In . SVG Version: 6.00 Build 0)  -->
<svg version="1.1" xmlns="http://www.w3.org/2000/svg" xmlns:xlink="http://www.w3.org/1999/xlink" x="0px" y="0px"
	 viewBox="0 0 360 360" style="enable-background:new 0 0 360 360;" xml:space="preserve">
<style type="text/css">
	.st0{fill:#2E3192;stroke:#2E3192;stroke-width:0.25;stroke-miterlimit:10;}
	.st1{fill:#4478CC;}
	.st2{fill:#231F20;}
</style>
<g id="Layer_3">
</g>
<g id="Layer_1">
	<rect x="131.46" y="37.86" class="st0" width="5.98" height="220.94"/>
	<g>
		<path class="st1" d="M131.55,258.8c0.11,6.07,0,16.54,0,25.36l0,0c1.71-8.18,4.79-20,5.89-25.36"/>
		<g>
			<path class="st1" d="M131.3,258.8c0.15,8.45,0,16.91,0,25.36c0,0.27,0.43,0.35,0.49,0.07c1.78-8.49,4.14-16.86,5.89-25.36
				c0.06-0.31-0.42-0.45-0.48-0.13c-1.76,8.5-4.11,16.86-5.89,25.36c0.16,0.02,0.33,0.04,0.49,0.07c0.01-8.45,0.16-16.91,0-25.36
				C131.8,258.48,131.3,258.48,131.3,258.8L131.3,258.8z"/>
		</g>
	</g>
</g>
<g id="Layer_2">
	<g>
		<g>
			<path class="st2" d="M125.08,47.05c3.95,3.19,7.86,6.44,11.54,9.95c3.51,3.35,6.85,6.88,10.24,10.36
				c7.65,7.84,16.7,17.03,15.86,28.89c-0.36,5.07-2.73,10.11-7.29,12.64c-2.81,1.56-0.3,5.88,2.52,4.32c4.85-2.69,8-7.61,9.19-12.95
				c1.3-5.86,0.43-11.73-1.98-17.18c-2.62-5.95-6.91-11.04-11.34-15.72c-3.89-4.1-7.84-8.16-11.85-12.13
				c-4.22-4.17-8.75-7.99-13.36-11.71c-1.05-0.85-2.51-1.03-3.54,0C124.2,44.39,124.02,46.2,125.08,47.05L125.08,47.05z"/>
		</g>
	</g>
	<g>
		<path class="st2" d="M154.66,109.66c-3.05,3.12-8.05,7.88-12.57,12.31l0,0c5.15-3.14,12.96-7.32,16.32-9.39"/>
		<g>
			<path class="st2" d="M154.48,109.48c-4.1,4.19-8.38,8.21-12.57,12.31c-0.2,0.2,0.06,0.54,0.3,0.39
				c5.37-3.26,10.97-6.11,16.32-9.39c0.27-0.17,0.02-0.6-0.25-0.43c-5.35,3.28-10.96,6.13-16.32,9.39c0.1,0.13,0.2,0.26,0.3,0.39
				c4.19-4.1,8.47-8.12,12.57-12.31C155.06,109.61,154.71,109.25,154.48,109.48L154.48,109.48z"/>
		</g>
	</g>
	<g>
		<path class="st2" d="M125.36,47.05c-3.07-3.11-8.52-8.29-13.06-12.71l0,0c5.13,3.16,12.88,7.38,16.23,9.46"/>
		<g>
			<path class="st2" d="M125.53,46.88c-4.27-4.32-8.71-8.48-13.06-12.71c-0.1,0.13-0.2,0.26-0.3,0.39
				c5.34,3.28,10.91,6.16,16.23,9.46c0.27,0.17,0.53-0.26,0.25-0.43c-5.33-3.29-10.89-6.18-16.23-9.46
				c-0.24-0.15-0.51,0.19-0.3,0.39c4.36,4.23,8.79,8.39,13.06,12.71C125.41,47.46,125.76,47.11,125.53,46.88L125.53,46.88z"/>
		</g>
	</g>
	<g>
		<g>
			<path class="st2" d="M110,140.36c-3.41,2.3-6.78,4.69-9.87,7.39c-2.52,2.21-4.8,4.66-7,7.19c-2.99,3.43-6.1,6.84-8.66,10.61
				c-2.67,3.94-4.74,8.31-6.16,12.85c-2.72,8.7-3.02,18.45-0.03,27.12c2.78,8.06,8.07,15.12,14.71,20.42
				c7.17,5.73,15.61,9.54,24.63,11.24c10.64,2,21.55,1.36,32.11-0.82c9.6-1.98,19.53-4.98,27.94-10.13
				c8.07-4.94,14.24-12.22,16.92-21.38c2.56-8.77,1.77-18.42-2.5-26.53c-4.08-7.75-11.09-13.76-19.23-16.92
				c-1.93-0.75-3.92-1.3-5.96-1.67c-1.33-0.24-2.7,0.36-3.08,1.75c-0.33,1.21,0.41,2.83,1.75,3.08c7.64,1.39,14.56,5.62,19.31,11.77
				c4.88,6.32,6.93,14.37,5.93,22.26c-1.05,8.25-5.38,15.67-11.92,20.76c-7.12,5.54-16.03,8.54-24.65,10.82
				c-17.73,4.67-37.76,5.23-53.75-4.95c-6.53-4.16-12.1-9.9-15.61-16.83c-3.64-7.17-4.52-15.53-3.06-23.4
				c0.78-4.2,2.14-8.29,4.1-12.09c2.04-3.97,4.7-7.34,7.57-10.72c4.3-5.07,8.64-9.99,14-13.96c1.65-1.22,3.33-2.39,5.03-3.53
				C115.18,142.89,112.68,138.56,110,140.36L110,140.36z"/>
		</g>
	</g>
	<g>
		<path class="st2" d="M113.64,143.7c3.32-2.84,8.71-7.14,13.61-11.15l0,0c-5.41,2.67-13.55,6.15-17.09,7.91"/>
		<g>
			<path class="st2" d="M113.82,143.88c4.46-3.81,9.07-7.44,13.61-11.15c0.23-0.19-0.06-0.51-0.3-0.39
				c-5.63,2.77-11.47,5.12-17.09,7.91c-0.29,0.14-0.04,0.57,0.25,0.43c5.62-2.79,11.46-5.14,17.09-7.91c-0.1-0.13-0.2-0.26-0.3-0.39
				c-4.54,3.72-9.15,7.34-13.61,11.15C113.22,143.74,113.58,144.09,113.82,143.88L113.82,143.88z"/>
		</g>
	</g>
	<g>
		<path class="st2" d="M164.94,163.95c-4.16-1.33-10.8-3.2-16.87-5l0,0c6.02,0.36,14.88,0.41,18.82,0.66"/>
		<g>
			<path class="st2" d="M165.01,163.7c-5.59-1.78-11.25-3.34-16.87-5c-0.02,0.16-0.04,0.33-0.07,0.49
				c6.27,0.37,12.55,0.27,18.82,0.66c0.32,0.02,0.32-0.48,0-0.5c-6.26-0.39-12.55-0.29-18.82-0.66c-0.29-0.02-0.33,0.41-0.07,0.49
				c5.62,1.67,11.28,3.22,16.87,5C165.18,164.28,165.31,163.8,165.01,163.7L165.01,163.7z"/>
		</g>
	</g>
</g>
</svg>
