<?xml version="1.0" encoding="UTF-8"?>
<svg xmlns="http://www.w3.org/2000/svg" viewBox="0 0 119.89 416.3">
  <defs>
    <style>
      .cls-1 {
        fill: #231f20;
      }

      .cls-2, .cls-3 {
        fill: #2e3192;
      }

      .cls-3 {
        stroke-width: .25px;
      }

      .cls-3, .cls-4 {
        stroke: #2e3192;
        stroke-miterlimit: 10;
      }

      .cls-4 {
        fill: none;
        stroke-width: .5px;
      }
    </style>
  </defs>
  <g id="Layer_1" data-name="Layer 1">
    <rect class="cls-3" x="55.31" y="3.77" width="5.98" height="220.94"/>
    <g>
      <path class="cls-2" d="m55.4,224.71c.11,6.07,0,16.54,0,25.36h0c1.71-8.18,4.79-20,5.89-25.36"/>
      <path class="cls-2" d="m55.15,224.71c.15,8.45,0,16.91,0,25.36,0,.27.43.35.49.07,1.78-8.49,4.14-16.86,5.89-25.36.06-.31-.42-.45-.48-.13-1.76,8.5-4.11,16.86-5.89,25.36l.49.07c0-8.45.16-16.91,0-25.36,0-.32-.51-.32-.5,0h0Z"/>
    </g>
  </g>
  <g id="Layer_2" data-name="Layer 2">
    <path class="cls-1" d="m48.92,12.96c3.95,3.19,7.86,6.44,11.54,9.95s6.85,6.88,10.24,10.36c7.65,7.84,16.7,17.03,15.86,28.89-.36,5.07-2.73,10.11-7.29,12.64-2.81,1.56-.3,5.88,2.52,4.32,4.85-2.69,8-7.61,9.19-12.95,1.3-5.86.43-11.73-1.98-17.18-2.62-5.95-6.91-11.04-11.34-15.72-3.89-4.1-7.84-8.16-11.85-12.13-4.22-4.17-8.75-7.99-13.36-11.71-1.05-.85-2.51-1.03-3.54,0-.88.88-1.06,2.68,0,3.54h0Z"/>
    <g>
      <path class="cls-1" d="m78.51,75.57c-3.05,3.12-8.05,7.88-12.57,12.31h0c5.15-3.14,12.96-7.32,16.32-9.39"/>
      <path class="cls-1" d="m78.33,75.39c-4.1,4.19-8.38,8.21-12.57,12.31-.2.2.06.54.3.39,5.37-3.26,10.97-6.11,16.32-9.39.27-.17.02-.6-.25-.43-5.35,3.28-10.96,6.13-16.32,9.39l.3.39c4.19-4.1,8.47-8.12,12.57-12.31.23-.23-.13-.58-.35-.35h0Z"/>
    </g>
    <g>
      <path class="cls-1" d="m49.2,12.96c-3.07-3.11-8.52-8.29-13.06-12.71h0c5.13,3.16,12.88,7.38,16.23,9.46"/>
      <path class="cls-1" d="m49.38,12.78c-4.27-4.32-8.71-8.48-13.06-12.71l-.3.39c5.34,3.28,10.91,6.16,16.23,9.46.27.17.53-.26.25-.43C47.17,6.2,41.6,3.31,36.27.04c-.24-.15-.51.19-.3.39,4.36,4.23,8.79,8.39,13.06,12.71.23.23.58-.12.35-.35h0Z"/>
    </g>
    <path class="cls-1" d="m33.85,106.27c-3.41,2.3-6.78,4.69-9.87,7.39-2.52,2.21-4.8,4.66-7,7.19-2.99,3.43-6.1,6.84-8.66,10.61s-4.74,8.31-6.16,12.85c-2.72,8.7-3.02,18.45-.03,27.12,2.78,8.06,8.07,15.12,14.71,20.42,7.17,5.73,15.61,9.54,24.63,11.24,10.64,2,21.55,1.36,32.11-.82,9.6-1.98,19.53-4.98,27.94-10.13s14.24-12.22,16.92-21.38c2.56-8.77,1.77-18.42-2.5-26.53s-11.09-13.76-19.23-16.92c-1.93-.75-3.92-1.3-5.96-1.67-1.33-.24-2.7.36-3.08,1.75-.33,1.21.41,2.83,1.75,3.08,7.64,1.39,14.56,5.62,19.31,11.77s6.93,14.37,5.93,22.26-5.38,15.67-11.92,20.76c-7.12,5.54-16.03,8.54-24.65,10.82-17.73,4.67-37.76,5.23-53.75-4.95-6.53-4.16-12.1-9.9-15.61-16.83s-4.52-15.53-3.06-23.4c.78-4.2,2.14-8.29,4.1-12.09s4.7-7.34,7.57-10.72c4.3-5.07,8.64-9.99,14-13.96,1.65-1.22,3.33-2.39,5.03-3.53,2.65-1.79.15-6.12-2.52-4.32h0Z"/>
    <g>
      <path class="cls-1" d="m37.49,109.61c3.32-2.84,8.71-7.14,13.61-11.15h0c-5.41,2.67-13.55,6.15-17.09,7.91"/>
      <path class="cls-1" d="m37.67,109.79c4.46-3.81,9.07-7.44,13.61-11.15.23-.19-.06-.51-.3-.39-5.63,2.77-11.47,5.12-17.09,7.91-.29.14-.04.57.25.43,5.62-2.79,11.46-5.14,17.09-7.91l-.3-.39c-4.54,3.72-9.15,7.34-13.61,11.15-.24.21.11.56.35.35h0Z"/>
    </g>
    <g>
      <path class="cls-1" d="m88.79,129.85c-4.16-1.33-10.8-3.2-16.87-5h0c6.02.36,14.88.41,18.82.66"/>
      <path class="cls-1" d="m88.86,129.61c-5.59-1.78-11.25-3.34-16.87-5l-.07.49c6.27.37,12.55.27,18.82.66.32.02.32-.48,0-.5-6.26-.39-12.55-.29-18.82-.66-.29-.02-.33.41-.07.49,5.62,1.67,11.28,3.22,16.87,5,.31.1.44-.38.13-.48h0Z"/>
    </g>
    <line class="cls-4" x1="55.4" y1="250.07" x2="53.77" y2="416.3"/>
  </g>
</svg>